<svg width="256" height="256" viewBox="0 0 256 256" fill="none" xmlns="http://www.w3.org/2000/svg">
<g clip-path="url(#clip0_9_3)">
<rect y="128" width="181.019" height="181.019" rx="15" transform="rotate(-45 0 128)" fill="#C4C4C4"/>
<path d="M119.562 157.977C119.505 155.914 119.477 154.367 119.477 153.336C119.477 147.263 120.336 142.021 122.055 137.609C123.315 134.286 125.349 130.935 128.156 127.555C130.219 125.091 133.914 121.51 139.242 116.812C144.628 112.057 148.122 108.276 149.727 105.469C151.331 102.661 152.133 99.5964 152.133 96.2734C152.133 90.2578 149.784 84.987 145.086 80.4609C140.388 75.8776 134.63 73.5859 127.812 73.5859C121.224 73.5859 115.724 75.6484 111.312 79.7734C106.901 83.8984 104.008 90.3438 102.633 99.1094L86.7344 97.2188C88.1667 85.474 92.4062 76.4792 99.4531 70.2344C106.557 63.9896 115.924 60.8672 127.555 60.8672C139.872 60.8672 149.698 64.2188 157.031 70.9219C164.365 77.625 168.031 85.7318 168.031 95.2422C168.031 100.742 166.742 105.812 164.164 110.453C161.586 115.094 156.544 120.737 149.039 127.383C143.997 131.852 140.703 135.146 139.156 137.266C137.609 139.385 136.464 141.82 135.719 144.57C134.974 147.32 134.544 151.789 134.43 157.977H119.562ZM118.617 189V171.383H136.234V189H118.617Z" fill="white"/>
</g>
<defs>
<clipPath id="clip0_9_3">
<rect width="256" height="256" fill="white"/>
</clipPath>
</defs>
</svg>
