<svg width="674" height="160" viewBox="0 0 674 160" fill="none" xmlns="http://www.w3.org/2000/svg">
<g clip-path="url(#clip0_3_10)">
<path fill-rule="evenodd" clip-rule="evenodd" d="M124.538 62.2824C114.594 52.3387 98.4721 52.3387 88.5284 62.2824C78.5847 72.2261 78.5847 88.3481 88.5284 98.2918C98.4721 108.236 114.594 108.236 124.538 98.2918L144.112 78.7177C144.979 77.8509 146.384 77.8509 147.251 78.7177C148.118 79.5844 148.118 80.9897 147.251 81.8565L127.677 101.431C115.999 113.108 97.0668 113.108 85.3895 101.431C73.7123 89.7534 73.7123 70.8208 85.3895 59.1435C97.0668 47.4663 115.999 47.4663 127.677 59.1435C128.543 60.0103 128.543 61.4156 127.677 62.2824C126.81 63.1492 125.405 63.1492 124.538 62.2824Z" fill="#A1C1F2"/>
<path fill-rule="evenodd" clip-rule="evenodd" d="M166.8 98.2918C176.744 108.236 192.866 108.236 202.81 98.2918C212.754 88.3481 212.754 72.2261 202.81 62.2824C192.866 52.3387 176.744 52.3387 166.8 62.2824L147.226 81.8565C146.36 82.7233 144.954 82.7233 144.088 81.8565C143.221 80.9898 143.221 79.5844 144.088 78.7177L163.662 59.1436C175.339 47.4663 194.271 47.4663 205.949 59.1435C217.626 70.8208 217.626 89.7534 205.949 101.431C194.271 113.108 175.339 113.108 163.662 101.431C162.795 100.564 162.795 99.1586 163.662 98.2918C164.528 97.425 165.934 97.425 166.8 98.2918Z" fill="#A1C1F2"/>
<path d="M197.33 80.2627C197.33 86.9896 191.877 92.4428 185.15 92.4428C178.423 92.4428 172.97 86.9896 172.97 80.2627C172.97 73.5359 178.423 68.0827 185.15 68.0827C191.877 68.0827 197.33 73.5359 197.33 80.2627Z" fill="#A1C1F2"/>
<path d="M119.082 80.2627C119.082 86.9896 113.629 92.4428 106.902 92.4428C100.175 92.4428 94.722 86.9896 94.722 80.2627C94.722 73.5359 100.175 68.0827 106.902 68.0827C113.629 68.0827 119.082 73.5359 119.082 80.2627Z" fill="#A1C1F2"/>
<path fill-rule="evenodd" clip-rule="evenodd" d="M68.8645 90.2639C68.8645 89.4467 68.202 88.7842 67.3848 88.7842L48.1491 88.7842C47.3319 88.7842 46.6695 89.4467 46.6695 90.2639C46.6695 91.0811 47.3319 91.7435 48.1491 91.7435L67.3848 91.7435C68.202 91.7435 68.8645 91.0811 68.8645 90.2639Z" fill="#A1C1F2"/>
<path fill-rule="evenodd" clip-rule="evenodd" d="M67.3849 78.4265C67.3849 77.6093 66.7224 76.9468 65.9052 76.9468L34.8322 76.9468C34.015 76.9468 33.3525 77.6093 33.3525 78.4265C33.3525 79.2437 34.015 79.9062 34.8322 79.9062L65.9052 79.9062C66.7224 79.9062 67.3849 79.2437 67.3849 78.4265Z" fill="#A1C1F2"/>
<path fill-rule="evenodd" clip-rule="evenodd" d="M70.3441 66.5892C70.3441 65.772 69.6816 65.1095 68.8644 65.1095L21.515 65.1095C20.6978 65.1095 20.0353 65.772 20.0353 66.5892C20.0353 67.4064 20.6978 68.0688 21.515 68.0688L68.8644 68.0688C69.6816 68.0688 70.3441 67.4064 70.3441 66.5892Z" fill="#A1C1F2"/>
<path d="M258.312 83.4688L255.094 102H251.281L259.188 56.5L274 56.5312C278.25 56.6562 281.531 57.9167 283.844 60.3125C286.156 62.6875 287.135 65.875 286.781 69.875C286.365 74.125 284.646 77.4583 281.625 79.875C278.604 82.2917 274.667 83.5 269.812 83.5L258.312 83.4688ZM258.875 80.2188L269.969 80.25C273.573 80.25 276.542 79.3333 278.875 77.5C281.208 75.6667 282.573 73.1354 282.969 69.9062C283.302 66.8229 282.635 64.3958 280.969 62.625C279.323 60.8333 276.969 59.8958 273.906 59.8125L262.438 59.7812L258.875 80.2188ZM309.656 71.3438C308.844 71.1771 308.021 71.0833 307.188 71.0625C304.812 71.0625 302.635 71.7917 300.656 73.25C298.677 74.6875 297.354 76.5208 296.688 78.75L292.688 102H289L294.875 68.1875H298.531L297.406 73.5625C298.635 71.5625 300.115 70.0417 301.844 69C303.594 67.9583 305.51 67.4583 307.594 67.5C308.323 67.5 309.177 67.6458 310.156 67.9375L309.656 71.3438ZM329.969 102C329.865 101.208 329.833 100.417 329.875 99.625L330.156 97.2812C328.594 98.9688 326.802 100.292 324.781 101.25C322.781 102.208 320.615 102.667 318.281 102.625C315.427 102.583 313.104 101.688 311.312 99.9375C309.542 98.1667 308.75 95.9479 308.938 93.2812C309.104 91.0521 309.865 89.125 311.219 87.5C312.594 85.8542 314.542 84.5833 317.062 83.6875C319.583 82.7708 322.406 82.3125 325.531 82.3125L332.438 82.3438L333 78.4688C333.25 76.1562 332.75 74.3021 331.5 72.9062C330.25 71.5104 328.406 70.7708 325.969 70.6875C323.51 70.6458 321.365 71.2604 319.531 72.5312C317.719 73.7812 316.583 75.4375 316.125 77.5H312.469C312.885 74.5417 314.406 72.1354 317.031 70.2812C319.656 68.4062 322.76 67.4896 326.344 67.5312C329.823 67.6146 332.5 68.6667 334.375 70.6875C336.271 72.7083 337.042 75.3333 336.688 78.5625L333.875 95.5625L333.625 98.2812C333.562 99.4062 333.646 100.521 333.875 101.625L333.812 102H329.969ZM318.906 99.3438C321.198 99.4271 323.385 98.8854 325.469 97.7188C327.573 96.5312 329.312 94.8542 330.688 92.6875L331.969 85.2188L326 85.1875C322.208 85.1875 319.115 85.8646 316.719 87.2188C314.323 88.5521 313 90.4688 312.75 92.9688C312.562 94.8021 313.042 96.3125 314.188 97.5C315.354 98.6875 316.927 99.3021 318.906 99.3438ZM355.594 99.5C358.052 99.5833 360.219 98.9062 362.094 97.4688C363.99 96.0104 365.25 94.0521 365.875 91.5938H369.406C368.781 94.9479 367.135 97.6562 364.469 99.7188C361.823 101.76 358.802 102.74 355.406 102.656C352.677 102.594 350.385 101.844 348.531 100.406C346.677 98.9688 345.333 96.9792 344.5 94.4375C343.688 91.8958 343.427 89.0312 343.719 85.8438L343.844 84.5C344.094 82.3125 344.625 80.1875 345.438 78.125C346.271 76.0625 347.375 74.2396 348.75 72.6562C350.125 71.0521 351.76 69.7917 353.656 68.875C355.573 67.9375 357.729 67.5 360.125 67.5625C363.583 67.6458 366.333 68.8125 368.375 71.0625C370.417 73.3125 371.375 76.1667 371.25 79.625L367.719 79.5938C367.76 76.9896 367.083 74.8854 365.688 73.2812C364.292 71.6771 362.385 70.8333 359.969 70.75C357.385 70.6667 355.104 71.4167 353.125 73C351.146 74.5833 349.656 76.8229 348.656 79.7188C347.656 82.6146 347.188 85.6875 347.25 88.9375C347.312 92.2917 348.062 94.875 349.5 96.6875C350.938 98.4792 352.969 99.4167 355.594 99.5ZM387.906 59.5312L386.406 68.1875H393.188L392.656 71.25H385.875L382.125 93.8125L382.062 95.75C382.062 98.0208 383.104 99.1875 385.188 99.25C385.833 99.2708 386.844 99.1979 388.219 99.0312L388.062 102.094C386.833 102.448 385.583 102.604 384.312 102.562C382.125 102.521 380.531 101.76 379.531 100.281C378.531 98.7812 378.167 96.6146 378.438 93.7812L382.156 71.25H376.094L376.656 68.1875H382.656L384.188 59.5312H387.906ZM399.219 102H395.469L401.375 68.1875H405.094L399.219 102ZM402.406 58.4062C402.51 57.0521 403.406 56.1979 405.094 55.8438C405.906 55.9896 406.479 56.25 406.812 56.625C407.167 56.9792 407.396 57.5729 407.5 58.4062C407.292 59.1979 406.99 59.7812 406.594 60.1562C406.198 60.5104 405.604 60.7708 404.812 60.9375C403.125 60.6875 402.323 59.8438 402.406 58.4062ZM422.406 99.5C424.865 99.5833 427.031 98.9062 428.906 97.4688C430.802 96.0104 432.062 94.0521 432.688 91.5938H436.219C435.594 94.9479 433.948 97.6562 431.281 99.7188C428.635 101.76 425.615 102.74 422.219 102.656C419.49 102.594 417.198 101.844 415.344 100.406C413.49 98.9688 412.146 96.9792 411.312 94.4375C410.5 91.8958 410.24 89.0312 410.531 85.8438L410.656 84.5C410.906 82.3125 411.438 80.1875 412.25 78.125C413.083 76.0625 414.188 74.2396 415.562 72.6562C416.938 71.0521 418.573 69.7917 420.469 68.875C422.385 67.9375 424.542 67.5 426.938 67.5625C430.396 67.6458 433.146 68.8125 435.188 71.0625C437.229 73.3125 438.188 76.1667 438.062 79.625L434.531 79.5938C434.573 76.9896 433.896 74.8854 432.5 73.2812C431.104 71.6771 429.198 70.8333 426.781 70.75C424.198 70.6667 421.917 71.4167 419.938 73C417.958 74.5833 416.469 76.8229 415.469 79.7188C414.469 82.6146 414 85.6875 414.062 88.9375C414.125 92.2917 414.875 94.875 416.312 96.6875C417.75 98.4792 419.781 99.4167 422.406 99.5ZM455.031 102.625C452.323 102.583 449.979 101.833 448 100.375C446.021 98.8958 444.562 96.8958 443.625 94.375C442.708 91.8333 442.385 89.0938 442.656 86.1562L442.75 85.0938C443.042 81.9688 443.969 79 445.531 76.1875C447.094 73.3542 449.073 71.1979 451.469 69.7188C453.865 68.2188 456.427 67.5 459.156 67.5625C461.677 67.6042 463.802 68.2917 465.531 69.625C467.281 70.9583 468.552 72.8125 469.344 75.1875C470.135 77.5625 470.385 80.1875 470.094 83.0625L469.844 85.3438H446.438L446.344 86.0938C446.031 88.3646 446.198 90.5417 446.844 92.625C447.49 94.6875 448.542 96.3333 450 97.5625C451.479 98.7708 453.25 99.3958 455.312 99.4375C457.312 99.5 459.115 99.1146 460.719 98.2812C462.323 97.4479 463.802 96.3333 465.156 94.9375L467.344 96.7188C465.823 98.6771 464.01 100.167 461.906 101.188C459.823 102.188 457.531 102.667 455.031 102.625ZM458.969 70.75C456.26 70.6458 453.833 71.6042 451.688 73.625C449.542 75.6458 447.927 78.4896 446.844 82.1562L466.469 82.1875L466.562 81.7188C466.938 78.7604 466.417 76.2188 465 74.0938C463.583 71.9479 461.573 70.8333 458.969 70.75ZM500.75 89.8438L500.969 96.5625L503.688 89.9062L518.438 56.5H521.875L526.125 90.2188L526.656 96.6562L529.219 89.5938L542.344 56.5H546.344L527.906 102H524.25L519.781 66.25L519.438 62.0625L517.688 66.4062L501.875 102H498.219L494.031 56.5H497.844L500.75 89.8438ZM557.844 102.625C555.135 102.583 552.792 101.833 550.812 100.375C548.833 98.8958 547.375 96.8958 546.438 94.375C545.521 91.8333 545.198 89.0938 545.469 86.1562L545.562 85.0938C545.854 81.9688 546.781 79 548.344 76.1875C549.906 73.3542 551.885 71.1979 554.281 69.7188C556.677 68.2188 559.24 67.5 561.969 67.5625C564.49 67.6042 566.615 68.2917 568.344 69.625C570.094 70.9583 571.365 72.8125 572.156 75.1875C572.948 77.5625 573.198 80.1875 572.906 83.0625L572.656 85.3438H549.25L549.156 86.0938C548.844 88.3646 549.01 90.5417 549.656 92.625C550.302 94.6875 551.354 96.3333 552.812 97.5625C554.292 98.7708 556.062 99.3958 558.125 99.4375C560.125 99.5 561.927 99.1146 563.531 98.2812C565.135 97.4479 566.615 96.3333 567.969 94.9375L570.156 96.7188C568.635 98.6771 566.823 100.167 564.719 101.188C562.635 102.188 560.344 102.667 557.844 102.625ZM561.781 70.75C559.073 70.6458 556.646 71.6042 554.5 73.625C552.354 75.6458 550.74 78.4896 549.656 82.1562L569.281 82.1875L569.375 81.7188C569.75 78.7604 569.229 76.2188 567.812 74.0938C566.396 71.9479 564.385 70.8333 561.781 70.75ZM606.188 85.25C605.458 90.625 603.74 94.8958 601.031 98.0625C598.344 101.229 595.01 102.76 591.031 102.656C588.823 102.615 586.875 102.125 585.188 101.188C583.521 100.25 582.24 98.9792 581.344 97.375L580.281 102H576.781L585.125 54H588.812L585.281 73.0938C588.177 69.2812 591.833 67.4375 596.25 67.5625C599.479 67.6458 601.969 68.8438 603.719 71.1562C605.469 73.4688 606.375 76.6667 606.438 80.75C606.458 82.0833 606.396 83.3646 606.25 84.5938L606.188 85.25ZM602.531 84.5312L602.75 81.5625C602.812 78.1667 602.219 75.5417 600.969 73.6875C599.719 71.8333 597.854 70.8646 595.375 70.7812C590.812 70.6979 587.24 73.0104 584.656 77.7188L582.094 93.0312C582.698 95.0521 583.729 96.6146 585.188 97.7188C586.667 98.8021 588.458 99.375 590.562 99.4375C593.667 99.5 596.26 98.3021 598.344 95.8438C600.448 93.3646 601.844 89.5938 602.531 84.5312Z" fill="#A1C1F2"/>
</g>
<defs>
<clipPath id="clip0_3_10">
<rect width="674" height="160" fill="white"/>
</clipPath>
</defs>
</svg>
